<svg xmlns="http://www.w3.org/2000/svg" width="17.933" height="17.933" viewBox="0 0 17.933 17.933">
  <path id="Path_1279" data-name="Path 1279" d="M15.832,1.4h-.841V0h-1.4V1.4H4.343V0h-1.4V1.4H2.1A2.1,2.1,0,0,0,0,3.5V15.832a2.1,2.1,0,0,0,2.1,2.1h13.73a2.1,2.1,0,0,0,2.1-2.1V3.5A2.1,2.1,0,0,0,15.832,1.4ZM2.1,2.8h.841V4.2h1.4V2.8H13.59V4.2h1.4V2.8h.841a.7.7,0,0,1,.7.7V5.184H1.4V3.5A.7.7,0,0,1,2.1,2.8Zm13.73,13.73H2.1a.7.7,0,0,1-.7-.7V6.585H16.532v9.247A.7.7,0,0,1,15.832,16.532Z" fill="#bbb"/>
</svg>
